# xmcd
#
# Track frame offsets:
#	150
#	12495
#	23852
#	38242
#	51145
#	63472
#	80217
#	91927
#	103560
#	113565
#	125470
#	139380
#	150922
#	161597
#	173797
#	184847
#	196192
#	203125
#	211955
#	224537
#	238685
#	250042
#	261472
#	272530
#	281792
#
# Disc length: 3922 seconds
#
# Revision: 1
# Processed by: cddbd v1.5.2PL0 Copyright (c) Steve Scherf et al.
# Submitted via: audiograbber 1.83.01
#
DISCID=6c0f5019
DTITLE=Diverse - Kings Of Queens
DYEAR=1997
DGENRE=Country
TTITLE0=Merle Haggard - Workin Man Blues
TTITLE1=Merle Haggard - Strangers
TTITLE2=Merle Haggard - I´m A Lonesome Fugitive
TTITLE3=Merle Haggard - Swing Doors
TTITLE4=Merle Haggard - The Bottle Let Me Down
TTITLE5=Merle Haggard - Some Other Time
TTITLE6=Willie Nelson - Some Other Time
TTITLE7=Willie Nelson - Is There Something On Your Mind
TTITLE8=Willie Nelson - Broken Pronises
TTITLE9=Willie Nelson - End Of Understanding
TTITLE10=Willie Nelson - Home Is Where You´re Happy
TTITLE11=Willie Nelson - I´ll Stay Around
TTITLE12=Waylon Jennings - Burning Memories
TTITLE13=Waylon Jennings - Don´t Think Twice
TTITLE14=Waylon Jennings - Dream Baby
TTITLE15=Waylon Jennings - Sally Was A Good Old Girl
TTITLE16=Waylon Jennings - It´s So Easy
TTITLE17=Waylon Jennings - Love´s Gonna Live Here
TTITLE18=George Jones - She Thinks I Still Care
TTITLE19=George Jones - Ain´t It Funny What A Fool Will Do
TTITLE20=George Jones - You Comb Her Hair
TTITLE21=George Jones - Least Of All
TTITLE22=George Jones - Tender Years
TTITLE23=George Jones - Old Brush Arbors
TTITLE24=George Jones - A Girl I Used To Know
EXTD=
EXTT0=
EXTT1=
EXTT2=
EXTT3=
EXTT4=
EXTT5=
EXTT6=
EXTT7=
EXTT8=
EXTT9=
EXTT10=
EXTT11=
EXTT12=
EXTT13=
EXTT14=
EXTT15=
EXTT16=
EXTT17=
EXTT18=
EXTT19=
EXTT20=
EXTT21=
EXTT22=
EXTT23=
EXTT24=
PLAYORDER=
